<svg width="24" height="24" viewBox="0 0 24 24" fill="none" xmlns="http://www.w3.org/2000/svg">
<path d="M18.667 10.667V9.33297C18.667 5.65197 15.683 2.66797 12.002 2.66797H11.999C8.31801 2.66797 5.33401 5.65197 5.33401 9.33297V10.666M18.667 10.667C20.139 10.667 21.333 11.861 21.333 13.333V14.666C21.333 16.138 20.139 17.332 18.667 17.332M18.667 10.667H16V17.332H18.667M18.667 17.332V18.332C18.667 19.989 17.324 21.332 15.667 21.332H9.33301M8.00001 17.332H5.33301C3.86101 17.332 2.66701 16.138 2.66701 14.666V13.333C2.66701 11.861 3.86101 10.667 5.33301 10.667H8.00001V17.332Z" stroke="#C2CFE0" stroke-width="1.5" stroke-miterlimit="10" stroke-linecap="round" stroke-linejoin="round"/>
</svg>
