<svg width="20" height="20" viewBox="0 0 20 20" fill="none" xmlns="http://www.w3.org/2000/svg">
<path d="M4.85254 17.7765C5.56421 17.0648 6.52921 16.6656 7.53504 16.6656H10.8225C12.3742 16.6656 13.8625 16.049 14.96 14.9523L17.25 12.6623C17.8634 12.049 17.8642 11.054 17.25 10.4398C16.6367 9.82648 15.6417 9.82648 15.0275 10.4398L13.425 12.0423C12.9559 12.5115 12.32 12.7748 11.6575 12.7748H8.66171M7.38504 12.7765H8.99004C9.75671 12.7765 10.3784 12.1548 10.3784 11.3881C10.3784 10.6215 9.75671 9.99981 8.99004 9.99981H6.10254C5.31587 9.99981 4.57587 10.3698 4.10337 10.999L2.20837 13.2998M15 5.00064C15 6.53462 13.7565 7.77814 12.2225 7.77814C10.6886 7.77814 9.44504 6.53462 9.44504 5.00064C9.44504 3.46667 10.6886 2.22314 12.2225 2.22314C13.7565 2.22314 15 3.46667 15 5.00064Z" stroke="black" stroke-width="1.5" stroke-miterlimit="10" stroke-linecap="round" stroke-linejoin="round"/>
</svg>
