<svg width="24" height="24" viewBox="0 0 24 24" fill="none" xmlns="http://www.w3.org/2000/svg">
<path d="M18.828 12C18.828 11.487 18.767 10.99 18.66 10.51L19.788 9.41997C20.351 8.87497 20.472 8.01697 20.08 7.33897C19.688 6.65997 18.885 6.33597 18.131 6.55097L16.62 6.98197C15.887 6.30697 15.011 5.78497 14.037 5.48097L13.657 3.96097C13.467 3.20097 12.784 2.66797 12 2.66797C11.216 2.66797 10.533 3.20097 10.343 3.96197L9.963 5.48097C8.991 5.78397 8.118 6.30397 7.386 6.97697L5.864 6.54197C5.111 6.32597 4.308 6.65097 3.916 7.32997C3.524 8.00897 3.644 8.86697 4.208 9.41097L5.341 10.506C5.233 10.988 5.172 11.486 5.172 12C5.172 12.51 5.232 13.005 5.338 13.483L4.203 14.581C3.64 15.126 3.519 15.984 3.911 16.662C4.303 17.341 5.106 17.665 5.86 17.45L7.378 17.016C8.109 17.69 8.982 18.211 9.953 18.516L10.334 20.039C10.524 20.799 11.207 21.332 11.991 21.332C12.775 21.332 13.458 20.799 13.648 20.038L14.027 18.522C15.002 18.219 15.879 17.698 16.613 17.025L18.127 17.458C18.88 17.673 19.684 17.349 20.075 16.67C20.467 15.991 20.346 15.133 19.783 14.589L18.658 13.501C18.766 13.017 18.828 12.516 18.828 12ZM12 14.666C10.528 14.666 9.334 13.472 9.334 12C9.334 10.528 10.528 9.33397 12 9.33397C13.472 9.33397 14.666 10.528 14.666 12C14.666 13.472 13.472 14.666 12 14.666Z" stroke="#C2CFE0" stroke-width="1.5" stroke-miterlimit="10" stroke-linecap="round" stroke-linejoin="round"/>
</svg>
