<svg width="16" height="16" viewBox="0 0 16 16" fill="none" xmlns="http://www.w3.org/2000/svg">
<path d="M12.4447 7.11132V6.22199C12.4447 3.76799 10.4554 1.77866 8.00141 1.77866H7.99941C5.54541 1.77866 3.55608 3.76799 3.55608 6.22199V7.11066M12.4447 7.11132C13.4261 7.11132 14.2221 7.90732 14.2221 8.88866V9.77732C14.2221 10.7587 13.4261 11.5547 12.4447 11.5547M12.4447 7.11132H10.6667V11.5547H12.4447M12.4447 11.5547V12.2213C12.4447 13.326 11.5494 14.2213 10.4447 14.2213H6.22208M5.33341 11.5547H3.55541C2.57408 11.5547 1.77808 10.7587 1.77808 9.77732V8.88866C1.77808 7.90732 2.57408 7.11132 3.55541 7.11132H5.33341V11.5547Z" stroke="#334D6E" stroke-miterlimit="10" stroke-linecap="round" stroke-linejoin="round"/>
</svg>
