<svg width="20" height="20" viewBox="0 0 20 20" fill="none" xmlns="http://www.w3.org/2000/svg">
<path d="M12.9558 2.6057H17.3942V7.04403M17.3875 2.61236L12.2225 7.77736M8.00501 11.9707C8.75501 12.6899 9.63417 13.2749 10.6058 13.6899L11.0383 13.874L12.3675 12.524C12.6975 12.189 13.175 12.044 13.6358 12.1407L16.8558 12.8149C17.4008 12.9307 17.79 13.4115 17.79 13.9682V16.2865C17.79 17.1157 17.1183 17.7874 16.2892 17.7874H15.5767C12.2983 17.7874 9.06334 16.7015 6.61667 14.5199C6.41501 14.3407 6.21917 14.1549 6.02834 13.9649L6.05917 13.9957C5.86834 13.8049 5.68334 13.609 5.50417 13.4074C3.32167 10.9615 2.23584 7.72653 2.23584 4.4482V3.7357C2.23584 2.90653 2.90751 2.23486 3.73667 2.23486H6.05501C6.61167 2.23486 7.09251 2.62403 7.20834 3.16903L7.88334 6.38903C7.97917 6.84903 7.83501 7.32736 7.50001 7.65736L6.15001 8.98653L6.33417 9.41903C6.74917 10.3899 7.28501 11.2207 8.00501 11.9707Z" stroke="black" stroke-width="1.5" stroke-miterlimit="10" stroke-linecap="round" stroke-linejoin="round"/>
</svg>
