<svg width="20" height="20" viewBox="0 0 20 20" fill="none" xmlns="http://www.w3.org/2000/svg">
<path d="M12.9558 2.60583H17.3942V7.04417M17.3875 2.6125L12.2225 7.7775M8.00501 11.9708C8.75501 12.69 9.63417 13.275 10.6058 13.69L11.0383 13.8742L12.3675 12.5242C12.6975 12.1892 13.175 12.0442 13.6358 12.1408L16.8558 12.815C17.4008 12.9308 17.79 13.4117 17.79 13.9683V16.2867C17.79 17.1158 17.1183 17.7875 16.2892 17.7875H15.5767C12.2983 17.7875 9.06334 16.7017 6.61667 14.52C6.41501 14.3408 6.21917 14.155 6.02834 13.965L6.05917 13.9958C5.86834 13.805 5.68334 13.6092 5.50417 13.4075C3.32167 10.9617 2.23584 7.72667 2.23584 4.44833V3.73583C2.23584 2.90667 2.90751 2.235 3.73667 2.235H6.05501C6.61167 2.235 7.09251 2.62417 7.20834 3.16917L7.88334 6.38917C7.97917 6.84917 7.83501 7.3275 7.50001 7.6575L6.15001 8.98667L6.33417 9.41917C6.74917 10.39 7.28501 11.2208 8.00501 11.9708Z" stroke="#FFD600" stroke-width="1.5" stroke-miterlimit="10" stroke-linecap="round" stroke-linejoin="round"/>
</svg>
